<svg xmlns="http://www.w3.org/2000/svg" width="21.431" height="47.712" viewBox="0 0 21.431 47.712">
  <g id="mongodb-icon" transform="translate(-8.813 0)">
    <path id="Path_1" data-name="Path 1" d="M15.912.087l1.273,2.391a7.145,7.145,0,0,0,.962,1.2,33.406,33.406,0,0,1,2.988,3.378,29.36,29.36,0,0,1,4.652,9.381,23.067,23.067,0,0,1,.987,6.366,22.466,22.466,0,0,1-6.56,16.579,18.933,18.933,0,0,1-2.341,2c-.441,0-.65-.338-.832-.65a5.351,5.351,0,0,1-.65-1.871,9.04,9.04,0,0,1-.209-2.365V36.13C16.146,36.052,15.757.27,15.912.087Z" transform="translate(3.467 0.043)" fill="#599636"/>
    <path id="Path_2" data-name="Path 2" d="M19.379.051c-.052-.1-.1-.025-.157.025a2.4,2.4,0,0,1-.441,1.431,6.858,6.858,0,0,1-1.144,1.144,24.9,24.9,0,0,0-5.586,7.121,28.6,28.6,0,0,0-3.22,11.641,38.733,38.733,0,0,0,.935,8.212,24.894,24.894,0,0,0,6.523,10.265A28.5,28.5,0,0,0,18.6,41.865c.234,0,.259-.209.313-.364a7.126,7.126,0,0,0,.234-1.014l.522-3.9Z" transform="translate(0 0)" fill="#6cac48"/>
    <path id="Path_3" data-name="Path 3" d="M17.43,31.2a3.557,3.557,0,0,1,.65-1.585,1.64,1.64,0,0,1-.728-.675,4.823,4.823,0,0,1-.388-.857,14.838,14.838,0,0,1-.546-3.352v-.675a3.24,3.24,0,0,0-.157,1.118,25.9,25.9,0,0,1-.468,3.508,3.121,3.121,0,0,1-.417,1.351.517.517,0,0,0,.025.182,15.516,15.516,0,0,1,.675,4.21v.522c0,.623-.025.492.492.7a2.279,2.279,0,0,1,.65.259c.157,0,.182-.13.182-.234l-.078-.857V32.421a6.324,6.324,0,0,1,.1-1.223Z" transform="translate(3.222 11.808)" fill="#c2bfbf"/>
  </g>
</svg>
