<svg xmlns="http://www.w3.org/2000/svg" width="45.049" height="49.643" viewBox="0 0 45.049 49.643">
  <g id="nodejs-icon" transform="translate(-0.603 -0.585)">
    <path id="Path_4" data-name="Path 4" d="M21.095,1.114a4.163,4.163,0,0,1,4.064,0Q34.44,6.358,43.722,11.6a3.821,3.821,0,0,1,1.93,3.291V35.924a3.863,3.863,0,0,1-2.074,3.363q-9.25,5.215-18.5,10.435a4.045,4.045,0,0,1-4.109-.114Q18.2,48,15.422,46.4a3.267,3.267,0,0,1-1.071-.771c.236-.318.658-.357,1-.5a12.953,12.953,0,0,0,2.19-1.022.511.511,0,0,1,.57.034c1.581.906,3.148,1.839,4.734,2.737.338.2.681-.064.97-.225q9.077-5.13,18.161-10.249a.6.6,0,0,0,.33-.591q.006-10.408,0-20.817a.651.651,0,0,0-.388-.649Q32.7,9.158,23.489,3.96a.64.64,0,0,0-.724,0Q13.549,9.153,4.335,14.352a.643.643,0,0,0-.39.646q0,10.408,0,20.818a.589.589,0,0,0,.334.584Q6.739,37.8,9.2,39.18a3.8,3.8,0,0,0,3.078.412A2.335,2.335,0,0,0,13.791,37.4c.008-6.9,0-13.8.006-20.695a.519.519,0,0,1,.566-.53c.788-.005,1.577-.011,2.365,0a.546.546,0,0,1,.514.631c0,6.942.008,13.884-.005,20.826A5.28,5.28,0,0,1,14.768,42.4a7.6,7.6,0,0,1-6.8-.187c-1.8-.9-3.524-1.962-5.295-2.926A3.854,3.854,0,0,1,.6,35.924V14.89a3.828,3.828,0,0,1,2-3.333Q11.848,6.338,21.095,1.114Z" transform="translate(0 0)" fill="#8cc84b"/>
    <path id="Path_5" data-name="Path 5" d="M112.231,85.671c2.689-.173,5.568-.1,7.988,1.222a6.041,6.041,0,0,1,2.945,5.227.566.566,0,0,1-.614.416c-.78,0-1.561.011-2.341-.005a.6.6,0,0,1-.565-.585,3.563,3.563,0,0,0-1.7-2.463,10.105,10.105,0,0,0-4.677-.669,6.348,6.348,0,0,0-3.348.834,2.121,2.121,0,0,0-.705,2.37c.251.6.938.788,1.5.965,3.241.848,6.675.763,9.854,1.879a4.639,4.639,0,0,1,3.054,2.717,5.8,5.8,0,0,1-.983,5.537,7.759,7.759,0,0,1-4.165,2.245,20.013,20.013,0,0,1-6.288.267,9.908,9.908,0,0,1-5.531-2.081,5.8,5.8,0,0,1-1.869-4.578.524.524,0,0,1,.574-.462c.786-.006,1.571-.008,2.357,0a.551.551,0,0,1,.563.545,3.571,3.571,0,0,0,1.329,2.507c1.6,1.03,3.6.96,5.429.989,1.515-.067,3.215-.088,4.452-1.089a2.459,2.459,0,0,0,.669-2.348c-.191-.694-.917-1.017-1.54-1.229-3.2-1.012-6.672-.645-9.84-1.789a4.789,4.789,0,0,1-3.024-2.635,5.4,5.4,0,0,1,1.078-5.616,8.7,8.7,0,0,1,5.4-2.17Z" transform="translate(-85.757 -69.986)" fill="#8cc84b"/>
  </g>
</svg>
