<svg xmlns="http://www.w3.org/2000/svg" width="46" height="45" viewBox="0 0 46 45">
  <g id="Group_9" data-name="Group 9" transform="translate(-78 -471)">
    <g id="Group_8" data-name="Group 8" transform="translate(5.322 5.227)">
      <g id="Group_7" data-name="Group 7" transform="translate(73 466)">
        <g id="Group_6" data-name="Group 6">
          <g id="Group_5" data-name="Group 5">
            <g id="Group_2" data-name="Group 2" transform="translate(0 0)">
              <g id="Group_4" data-name="Group 4" transform="translate(0 0)">
                <text id="M" transform="translate(14.174 27.149)" fill="#fff" stroke="#fff" stroke-width="1" font-size="21" font-family="Narkisim" letter-spacing="-0.07em"><tspan x="0" y="0">M</tspan></text>
                <g id="Rectangle_1" data-name="Rectangle 1" transform="translate(0.678 -0.227)" fill="none" stroke="#fff" stroke-width="6">
                  <path d="M0,0H37a8,8,0,0,1,8,8V41a0,0,0,0,1,0,0H8a8,8,0,0,1-8-8V0A0,0,0,0,1,0,0Z" stroke="none"/>
                  <path d="M3,3H37a5,5,0,0,1,5,5V38a0,0,0,0,1,0,0H8a5,5,0,0,1-5-5V3A0,0,0,0,1,3,3Z" fill="none"/>
                </g>
                <rect id="Rectangle_2" data-name="Rectangle 2" width="8" height="8" transform="translate(-0.322 9.773)"/>
                <rect id="Rectangle_4" data-name="Rectangle 4" width="8" height="14" transform="translate(26.678 30.773)"/>
              </g>
            </g>
          </g>
        </g>
      </g>
    </g>
  </g>
</svg>
